<svg xmlns="http://www.w3.org/2000/svg" class="social-link-icon" width="30px" fill="#111" height="30px" viewBox="0 0 24 24"><path d="M12 0C9.813 0 7.8.533 5.96 1.6A11.793 11.793 0 0 0 1.6 5.96C.533 7.8 0 9.813 0 12s.533 4.2 1.6 6.04a11.793 11.793 0 0 0 4.36 4.36C7.8 23.467 9.813 24 12 24s4.2-.533 6.04-1.6a11.793 11.793 0 0 0 4.36-4.36C23.467 16.2 24 14.187 24 12s-.533-4.2-1.6-6.04a11.793 11.793 0 0 0-4.36-4.36C16.2.533 14.187 0 12 0zm3.12 12h-2v7.2H10.4V12H8.64V9.52h1.76V8c0-1.12.187-1.92.56-2.4.427-.587 1.2-.88 2.32-.88h2V7.2h-1.2c-.427 0-.693.067-.8.2-.107.133-.16.387-.16.76v1.2h2.16L15.12 12z"/></svg>