<svg xmlns="http://www.w3.org/2000/svg" height="24px" width="24px" fill="#111" viewBox="0 0 24 24"><path d="M21.11 4a6.6 6.6 0 0 0-4.79-1.92A6.27 6.27 0 0 0 12 3.84 6.57 6.57 0 0 0 2.89 4c-2.8 2.68-2.45 7.3.88 10.76l6.84 6.63A2 2 0 0 0 12 22a2 2 0 0 0 1.37-.54l.2-.19.61-.57c.6-.57 1.42-1.37 2.49-2.41l2.44-2.39 1.09-1.07c3.38-3.55 3.8-8.1.91-10.83zm-2.35 9.4l-.25.24-.8.79-2.44 2.39c-1 1-1.84 1.79-2.44 2.36L12 20l-6.83-6.68c-2.56-2.66-2.86-6-.88-7.92a4.52 4.52 0 0 1 6.4 0l.09.08a2.12 2.12 0 0 1 .32.3l.9.94.9-.94.28-.27.11-.09a4.52 4.52 0 0 1 6.43 0c1.97 1.9 1.67 5.25-.96 7.98z"/></svg>