<svg xmlns="http://www.w3.org/2000/svg" class="social-link-icon" width="30px" fill="#111" height="30px" viewBox="0 0 24 24"><path d="M16 12.48a4.723 4.723 0 0 1-.56 1.48 3.93 3.93 0 0 1-1.04 1.16 3.428 3.428 0 0 1-1.92.68 3.628 3.628 0 0 1-1.96-.48 3.414 3.414 0 0 1-1.4-1.48c-.48-.96-.587-1.973-.32-3.04H7.68l.08 5.52c0 .107.04.213.12.32.08.107.173.16.28.16h8.32c.107 0 .213-.053.32-.16.107-.107.16-.213.16-.32V10.8h-1.12c.16.533.213 1.093.16 1.68zm-3.68 2c.64 0 1.2-.24 1.68-.72s.72-1.053.72-1.72a2.56 2.56 0 0 0-.68-1.76c-.453-.507-1.013-.76-1.68-.76s-1.24.24-1.72.72-.72 1.053-.72 1.72.227 1.253.68 1.76c.453.507 1 .76 1.64.76h.08zm4.16-7.6h-1.12c-.107 0-.213.053-.32.16-.107.107-.16.213-.16.32v1.36c.107.213.267.32.48.32h1.12c.16 0 .28-.053.36-.16a.532.532 0 0 0 .12-.32v-1.2c0-.107-.053-.213-.16-.32-.107-.107-.213-.16-.32-.16zM12 0C9.813 0 7.8.533 5.96 1.6A11.793 11.793 0 0 0 1.6 5.96C.533 7.8 0 9.813 0 12s.533 4.2 1.6 6.04a11.793 11.793 0 0 0 4.36 4.36C7.8 23.467 9.813 24 12 24s4.2-.533 6.04-1.6a11.793 11.793 0 0 0 4.36-4.36C23.467 16.2 24 14.187 24 12s-.533-4.2-1.6-6.04a11.793 11.793 0 0 0-4.36-4.36C16.2.533 14.187 0 12 0zm6.24 16.88l-.08.08v.08a.926.926 0 0 1-.28.68 1.3 1.3 0 0 1-.68.36H7.52a.871.871 0 0 1-.68-.32 1.536 1.536 0 0 1-.36-.72l-.08-.16.08-9.84c0-.267.093-.507.28-.72.187-.213.413-.347.68-.4h9.68a1.3 1.3 0 0 1 .68.36 1.3 1.3 0 0 1 .36.68l.08 9.92z"/></svg>