<svg xmlns="http://www.w3.org/2000/svg" class="social-link-icon" width="30px" fill="#111" height="30px" viewBox="0 0 24 24"><path d="M12 0C9.813 0 7.8.533 5.96 1.6A11.793 11.793 0 0 0 1.6 5.96C.533 7.8 0 9.813 0 12s.533 4.2 1.6 6.04a11.793 11.793 0 0 0 4.36 4.36C7.8 23.467 9.813 24 12 24s4.2-.533 6.04-1.6a11.793 11.793 0 0 0 4.36-4.36C23.467 16.2 24 14.187 24 12s-.533-4.2-1.6-6.04a11.793 11.793 0 0 0-4.36-4.36C16.2.533 14.187 0 12 0zm6 9.28v.4c0 1.387-.333 2.72-1 4a8.186 8.186 0 0 1-2.84 3.12c-1.333.853-2.827 1.28-4.48 1.28a8.535 8.535 0 0 1-4.56-1.28h.72c1.387 0 2.613-.427 3.68-1.28-.64 0-1.213-.2-1.72-.6-.507-.4-.867-.92-1.08-1.56l.56.16c.373 0 .64-.053.8-.16a2.67 2.67 0 0 1-1.72-1 2.913 2.913 0 0 1-.68-1.88c.427.267.88.4 1.36.4-.907-.533-1.36-1.36-1.36-2.48 0-.533.133-1.04.4-1.52.8.96 1.72 1.707 2.76 2.24a8.133 8.133 0 0 0 3.4.88c-.107-.16-.16-.4-.16-.72 0-.8.293-1.493.88-2.08s1.28-.88 2.08-.88 1.547.293 2.24.88c.48-.107 1.12-.347 1.92-.72-.213.747-.64 1.28-1.28 1.6H18c.747-.16 1.28-.32 1.6-.48-.533.693-1.067 1.253-1.6 1.68z"/></svg>